<svg id="elg" data-name="elg" xmlns="http://www.w3.org/2000/svg" viewBox="0 0 300 290" width="300" height="290"><defs><style>.cls-1{fill:#36abee;}</style></defs><path class="cls-1" d="M263.39,91.58l-21.61,21.61a5.64,5.64,0,0,1-8,0l-52-52a5.62,5.62,0,0,1,0-8l21.61-21.61a22.53,22.53,0,0,1,31.82,0l28.18,28.17A22.47,22.47,0,0,1,263.39,91.58ZM163.21,71.75,40.12,194.84l-9.94,57a11.26,11.26,0,0,0,13,13l57-10L223.26,131.75a5.64,5.64,0,0,0,0-8l-52-52a5.7,5.7,0,0,0-8,0Zm-75,112.55a6.53,6.53,0,0,1,0-9.28l72.18-72.19a6.57,6.57,0,1,1,9.29,9.28L97.45,184.3a6.53,6.53,0,0,1-9.28,0ZM71.24,223.72h22.5v17L63.51,246,48.93,231.45l5.3-30.23h17Z"/></svg>